<svg width="214" height="59" viewBox="0 0 214 59" fill="none" xmlns="http://www.w3.org/2000/svg">
<g clip-path="url(#clip0_1_21)">
<rect x="4" y="4" width="52" height="52" rx="6" fill="#FF8E8E"/>
<path d="M9.83334 12.2917C9.83334 11.6397 10.0923 11.0144 10.5534 10.5534C11.0144 10.0923 11.6397 9.83333 12.2917 9.83333H22.125C22.777 9.83333 23.4023 10.0923 23.8633 10.5534C24.3243 11.0144 24.5833 11.6397 24.5833 12.2917V22.125C24.5833 22.777 24.3243 23.4023 23.8633 23.8633C23.4023 24.3243 22.777 24.5833 22.125 24.5833H12.2917C11.6397 24.5833 11.0144 24.3243 10.5534 23.8633C10.0923 23.4023 9.83334 22.777 9.83334 22.125V12.2917Z" stroke="black" stroke-width="4" stroke-linecap="round" stroke-linejoin="round"/>
<path d="M17.2083 41.7917V41.8169" stroke="black" stroke-width="4" stroke-linecap="round" stroke-linejoin="round"/>
<path d="M34.4167 12.2917C34.4167 11.6397 34.6757 11.0144 35.1367 10.5534C35.5977 10.0923 36.223 9.83333 36.875 9.83333H46.7083C47.3603 9.83333 47.9856 10.0923 48.4466 10.5534C48.9077 11.0144 49.1667 11.6397 49.1667 12.2917V22.125C49.1667 22.777 48.9077 23.4023 48.4466 23.8633C47.9856 24.3243 47.3603 24.5833 46.7083 24.5833H36.875C36.223 24.5833 35.5977 24.3243 35.1367 23.8633C34.6757 23.4023 34.4167 22.777 34.4167 22.125V12.2917Z" stroke="black" stroke-width="4" stroke-linecap="round" stroke-linejoin="round"/>
<path d="M17.2083 17.2083V17.2336" stroke="black" stroke-width="4" stroke-linecap="round" stroke-linejoin="round"/>
<path d="M9.83334 36.875C9.83334 36.223 10.0923 35.5977 10.5534 35.1367C11.0144 34.6757 11.6397 34.4167 12.2917 34.4167H22.125C22.777 34.4167 23.4023 34.6757 23.8633 35.1367C24.3243 35.5977 24.5833 36.223 24.5833 36.875V46.7083C24.5833 47.3603 24.3243 47.9856 23.8633 48.4466C23.4023 48.9077 22.777 49.1667 22.125 49.1667H12.2917C11.6397 49.1667 11.0144 48.9077 10.5534 48.4466C10.0923 47.9856 9.83334 47.3603 9.83334 46.7083V36.875Z" stroke="black" stroke-width="4" stroke-linecap="round" stroke-linejoin="round"/>
<path d="M41.7917 17.2083V17.2336" stroke="black" stroke-width="4" stroke-linecap="round" stroke-linejoin="round"/>
<path d="M34.4167 34.4167H41.7917" stroke="black" stroke-width="4" stroke-linecap="round" stroke-linejoin="round"/>
<path d="M49.1667 34.4167V34.4419" stroke="black" stroke-width="4" stroke-linecap="round" stroke-linejoin="round"/>
<path d="M34.4167 34.4167V41.7917" stroke="black" stroke-width="4" stroke-linecap="round" stroke-linejoin="round"/>
<path d="M34.4167 49.1667H41.7917" stroke="black" stroke-width="4" stroke-linecap="round" stroke-linejoin="round"/>
<path d="M41.7917 41.7917H49.1667" stroke="black" stroke-width="4" stroke-linecap="round" stroke-linejoin="round"/>
<path d="M49.1667 41.7917V49.1667" stroke="black" stroke-width="4" stroke-linecap="round" stroke-linejoin="round"/>
</g>
<path class="text" d="M74.4844 24.0469V28.0469C73.6406 27.5052 72.7604 27.099 71.8438 26.8281C70.9375 26.5469 70.026 26.4062 69.1094 26.4062C68.0885 26.4062 67.3177 26.5573 66.7969 26.8594C66.276 27.151 66.0156 27.5885 66.0156 28.1719C66.0156 29.0052 67.1302 29.6823 69.3594 30.2031L69.5312 30.25L70.8438 30.5625C72.5104 30.9583 73.7292 31.599 74.5 32.4844C75.2812 33.3594 75.6719 34.5469 75.6719 36.0469C75.6719 37.849 75.0781 39.2031 73.8906 40.1094C72.7135 41.0052 70.9375 41.4531 68.5625 41.4531C67.5104 41.4531 66.4323 41.3594 65.3281 41.1719C64.224 40.9948 63.1042 40.724 61.9688 40.3594V36.3594C62.9792 36.9323 64.0052 37.3698 65.0469 37.6719C66.099 37.974 67.1146 38.125 68.0938 38.125C69.1667 38.125 69.9792 37.9688 70.5312 37.6562C71.0833 37.3438 71.3594 36.8906 71.3594 36.2969C71.3594 35.7135 71.1615 35.2656 70.7656 34.9531C70.3802 34.6406 69.4531 34.3073 67.9844 33.9531L66.7188 33.6719C64.9688 33.276 63.6927 32.6562 62.8906 31.8125C62.0885 30.9688 61.6875 29.8385 61.6875 28.4219C61.6875 26.7344 62.2969 25.4219 63.5156 24.4844C64.7344 23.5469 66.4479 23.0781 68.6562 23.0781C69.6458 23.0781 70.6302 23.1615 71.6094 23.3281C72.599 23.4844 73.5573 23.724 74.4844 24.0469ZM89.0625 18.5312V23.5H95.0469V27.0156H89.0625V35.2969C89.0625 36.0781 89.25 36.6406 89.625 36.9844C90.0104 37.3177 90.6458 37.4844 91.5312 37.4844H95.0469V41H91.2031C88.5781 41 86.8021 40.5833 85.875 39.75C84.9479 38.9062 84.4844 37.349 84.4844 35.0781V27.0156H80.0156V23.5H84.4844V18.5312H89.0625ZM101.016 23.5H110.078V37.4844H115.766V41H99.7969V37.4844H105.5V27.0156H101.016V23.5ZM105.5 14.9844H110.078V20.3281H105.5V14.9844ZM127.094 41.3594C126.948 41.3906 126.823 41.4115 126.719 41.4219C126.625 41.4427 126.531 41.4531 126.438 41.4531C123.76 41.4531 121.729 40.4323 120.344 38.3906C118.969 36.349 118.281 33.3385 118.281 29.3594C118.281 25.3698 118.969 22.3542 120.344 20.3125C121.729 18.2708 123.771 17.25 126.469 17.25C129.177 17.25 131.219 18.2708 132.594 20.3125C133.979 22.3542 134.672 25.3698 134.672 29.3594C134.672 32.099 134.344 34.3958 133.688 36.25C133.031 38.0938 132.078 39.4115 130.828 40.2031L133.734 43.0469L130.578 45.3906L127.094 41.3594ZM126.469 21.3906C125.292 21.3906 124.432 22.0208 123.891 23.2812C123.349 24.5312 123.078 26.5573 123.078 29.3594C123.078 32.151 123.349 34.1771 123.891 35.4375C124.432 36.6875 125.292 37.3125 126.469 37.3125C127.656 37.3125 128.521 36.6875 129.062 35.4375C129.604 34.1771 129.875 32.151 129.875 29.3594C129.875 26.5573 129.604 24.5312 129.062 23.2812C128.521 22.0208 127.656 21.3906 126.469 21.3906ZM138.625 34.8906V23.5H143.203V34.1875C143.203 35.4479 143.38 36.349 143.734 36.8906C144.089 37.4323 144.677 37.7031 145.5 37.7031C146.323 37.7031 146.964 37.3385 147.422 36.6094C147.891 35.8802 148.125 34.8594 148.125 33.5469V23.5H152.703V41H148.125V38.4062C147.802 39.375 147.25 40.125 146.469 40.6562C145.698 41.1875 144.766 41.4531 143.672 41.4531C142.005 41.4531 140.745 40.901 139.891 39.7969C139.047 38.6927 138.625 37.0573 138.625 34.8906ZM172.625 40.1406C171.562 40.5781 170.479 40.9062 169.375 41.125C168.271 41.3438 167.104 41.4531 165.875 41.4531C162.948 41.4531 160.708 40.6719 159.156 39.1094C157.615 37.5365 156.844 35.276 156.844 32.3281C156.844 29.474 157.589 27.2188 159.078 25.5625C160.568 23.9062 162.599 23.0781 165.172 23.0781C167.766 23.0781 169.776 23.849 171.203 25.3906C172.641 26.9219 173.359 29.0833 173.359 31.875V33.7344H161.5C161.51 35.1094 161.917 36.1354 162.719 36.8125C163.521 37.4896 164.719 37.8281 166.312 37.8281C167.365 37.8281 168.401 37.6771 169.422 37.375C170.443 37.0729 171.51 36.5938 172.625 35.9375V40.1406ZM168.75 30.2969C168.729 29.0885 168.417 28.1771 167.812 27.5625C167.219 26.9375 166.339 26.625 165.172 26.625C164.12 26.625 163.281 26.9479 162.656 27.5938C162.031 28.2292 161.661 29.1354 161.547 30.3125L168.75 30.2969ZM177.188 34.8906V23.5H181.766V34.1875C181.766 35.4479 181.943 36.349 182.297 36.8906C182.651 37.4323 183.24 37.7031 184.062 37.7031C184.885 37.7031 185.526 37.3385 185.984 36.6094C186.453 35.8802 186.688 34.8594 186.688 33.5469V23.5H191.266V41H186.688V38.4062C186.365 39.375 185.812 40.125 185.031 40.6562C184.26 41.1875 183.328 41.4531 182.234 41.4531C180.568 41.4531 179.307 40.901 178.453 39.7969C177.609 38.6927 177.188 37.0573 177.188 34.8906ZM206.578 29.9844C207.036 30.0781 207.432 30.2969 207.766 30.6406C208.109 30.974 208.526 31.6302 209.016 32.6094L213.234 41H208.172L205.359 35.1094C205.276 34.9427 205.167 34.7135 205.031 34.4219C204.208 32.6615 203.24 31.7812 202.125 31.7812H200.656V41H196.047V17.6719H202.703C205.703 17.6719 207.854 18.2031 209.156 19.2656C210.469 20.3281 211.125 22.0573 211.125 24.4531C211.125 26.0573 210.734 27.3333 209.953 28.2812C209.172 29.2292 208.047 29.7969 206.578 29.9844ZM200.656 21.5469V27.9062H202.828C204.089 27.9062 204.99 27.6615 205.531 27.1719C206.083 26.6719 206.359 25.8542 206.359 24.7188C206.359 23.5833 206.089 22.7708 205.547 22.2812C205.005 21.7917 204.099 21.5469 202.828 21.5469H200.656Z" fill="black"/>
<defs>
<clipPath id="clip0_1_21">
<rect width="59" height="59" fill="white"/>
</clipPath>
</defs>
    <style>
        .text {
        fill: #000;
        }
        @media (prefers-color-scheme: dark) {
        .text {
        fill: #FFF;
        }
        }

    </style>
</svg>
